HIERARCHY
ROOT Hips
{
     OFFSET 1.88212 96.90440 -13.34250
     CHANNELS 6 Xposition Yposition Zposition Zrotation Xrotation Yrotation
     JOINT Spine
     {
          OFFSET 0.00000 11.89050 0.00000
          CHANNELS 3 Zrotation Xrotation Yrotation
          JOINT Spine1
          {
               OFFSET -0.00000 25.65740 0.12766
               CHANNELS 3 Zrotation Xrotation Yrotation
               JOINT HEad
               {
                    OFFSET 0.00000 8.73416 0.01134
                    CHANNELS 3 Zrotation Xrotation Yrotation
                    End Site
                    {
                         OFFSET -0.29000 12.77420 2.51395
                    }
               }
               JOINT LeftShoulder1
               {
                    OFFSET 8.99000 -0.36225 -0.22000
                    CHANNELS 3 Zrotation Xrotation Yrotation
                    JOINT LeftArm
                    {
                         OFFSET 10.28270 -0.00338 0.32212
                         CHANNELS 3 Zrotation Xrotation Yrotation
                         JOINT LeftForeArm
                         {
                              OFFSET 32.76690 0.09914 -1.42434
                              CHANNELS 3 Zrotation Xrotation Yrotation
                              JOINT LeftHand
                              {
                                   OFFSET 27.56430 0.08536 1.02216
                                   CHANNELS 3 Zrotation Xrotation Yrotation
                                   End Site
                                   {
                                        OFFSET 16.74430 -0.60000 1.50291
                                   }
                              }
                         }
                    }
               }
               JOINT RightShoulder
               {
                    OFFSET -8.99000 -0.36225 -0.22000
                    CHANNELS 3 Zrotation Xrotation Yrotation
                    JOINT RightArm
                    {
                         OFFSET -10.28270 -0.00338 0.32212
                         CHANNELS 3 Zrotation Xrotation Yrotation
                         JOINT RightForeArm
                         {
                              OFFSET -32.89710 0.09914 -1.42434
                              CHANNELS 3 Zrotation Xrotation Yrotation
                              JOINT RightHand
                              {
                                   OFFSET -27.49210 0.08536 1.02216
                                   CHANNELS 3 Zrotation Xrotation Yrotation
                                   End Site
                                   {
                                        OFFSET -16.63120 -0.60000 1.50291
                                   }
                              }
                         }
                    }
               }
          }
     }
     JOINT LeftUpLeg
     {
          OFFSET 8.94580 -8.66707 0.10165
          CHANNELS 3 Zrotation Xrotation Yrotation
          JOINT LeftLeg
          {
               OFFSET 0.00000 -44.42270 1.37270
               CHANNELS 3 Zrotation Xrotation Yrotation
               JOINT LeftFoot
               {
                    OFFSET -0.25355 -42.09240 -1.46059
                    CHANNELS 3 Zrotation Xrotation Yrotation
                    JOINT LeftToes
                    {
                         OFFSET -0.04000 -4.41509 8.49910
                         CHANNELS 3 Zrotation Xrotation Yrotation
                         End Site
                         {
                              OFFSET 0.08000 -0.04745 9.77979
                         }
                    }
               }
          }
     }
     JOINT RightUpLeg
     {
          OFFSET -8.94580 -8.66707 0.10165
          CHANNELS 3 Zrotation Xrotation Yrotation
          JOINT RightLeg
          {
               OFFSET 0.00000 -44.42270 1.37270
               CHANNELS 3 Zrotation Xrotation Yrotation
               JOINT RightFoot
               {
                    OFFSET 0.25355 -42.09240 -1.46059
                    CHANNELS 3 Zrotation Xrotation Yrotation
                    JOINT RightToes
                    {
                         OFFSET 0.04000 -4.41509 8.49910
                         CHANNELS 3 Zrotation Xrotation Yrotation
                         End Site
                         {
                              OFFSET -0.08000 -0.13745 9.77979
                         }
                    }
               }
          }
     }
}
MOTION
Frames: 15
Frame Time: 0.01667
31.35640 94.34781 -2.21396 8.72061 16.58716 -174.71449 9.17203 9.60792 -5.46530 -0.00780 0.00625 0.00310 8.52852 9.21134 -21.47316 1.57193 13.19097 6.20748 -80.85224 -19.44538 -86.73535 -37.70681 33.75129 -78.41975 15.90592 8.29741 -11.84901 11.47616 14.54678 3.64989 90.57151 -26.09932 87.16905 6.20240 25.57658 85.53493 16.06016 10.60932 4.81682 10.35845 2.09051 -14.96435 -18.03570 -4.24278 57.96190 -22.28982 -0.00388 0.01224 29.56727 -3.14654 -72.76741 0.74552 30.10285 8.71069 25.54036 23.00727 -31.25704 -2.64357 0.21784 -0.04155 -9.92130 37.26110 21.90250 
31.58116 95.02281 -2.59591 9.90709 20.30580 -171.55205 11.12555 12.32049 -8.63040 -0.00577 0.00914 -0.00205 9.22033 9.59338 -22.56974 1.46671 12.92826 6.01623 -82.26416 -17.79995 -84.01682 -38.23058 34.75605 -79.26105 15.27176 9.29881 -12.21135 13.91160 14.42256 2.38938 88.53155 -26.96590 85.14591 6.44252 25.42750 85.89389 16.10403 10.76175 4.74865 12.45608 5.48488 -19.01277 -17.55958 -4.51901 57.76104 -26.06464 -0.00059 0.01288 32.73052 -2.81457 -72.22623 4.10674 28.52275 3.19575 29.81255 30.17520 -26.49371 -6.34881 0.34255 -0.09493 -4.95385 47.49562 15.25147 
31.81797 95.79375 -3.05104 10.88010 23.79974 -168.76340 12.72860 14.52380 -11.07315 -0.00231 0.01146 -0.00699 10.25052 10.32324 -23.99498 1.43598 12.93254 5.38247 -82.88332 -16.57035 -81.85091 -38.64430 35.33725 -79.93842 14.64747 9.94359 -12.30219 16.73093 14.38019 0.64489 86.28247 -27.94090 82.82619 6.70097 25.27571 86.38727 16.19416 11.09820 5.00645 14.79827 8.52007 -22.71924 -17.16421 -4.64431 57.58349 -29.77738 0.00294 0.01228 35.72706 -2.65812 -71.67462 5.97106 25.20167 -1.99222 35.18622 39.59861 -24.94299 -5.76909 0.07706 -0.01144 -0.04632 40.99245 6.26548 
32.05765 96.56567 -3.54520 11.67269 27.10522 -166.30431 13.95611 16.32626 -12.86581 0.00173 0.01330 -0.01122 11.58397 11.37504 -25.68125 1.54994 13.18865 4.49002 -83.01154 -15.36795 -79.95003 -38.79785 35.81007 -80.56171 27.61712 -5.06676 -14.72275 19.84348 14.37265 -1.45095 83.87073 -29.04259 80.28672 6.97142 25.13894 87.02374 16.28024 11.34306 5.21398 17.28668 11.22788 -26.13578 -16.85270 -4.57972 57.44888 -33.36681 0.00710 0.01069 38.50360 -2.76458 -71.15514 6.33193 20.53366 -6.84566 41.13287 49.04350 -24.78406 -4.52772 0.04138 0.00783 2.91658 42.58809 -0.43366 
32.28072 97.26019 -4.00686 12.30017 30.25585 -164.13762 14.82428 17.81187 -14.07613 0.00559 0.01526 -0.01450 13.17404 12.71312 -27.58062 1.89662 13.69720 3.46208 -82.91496 -14.05789 -78.20716 -38.68328 36.22004 -81.20473 20.23068 6.94129 -13.84083 23.15773 14.39414 -3.78257 81.36052 -30.28026 77.64117 7.26118 25.03497 87.78697 16.40477 11.57348 5.59946 19.87485 13.65928 -29.30492 -17.05753 -4.99793 57.34286 -30.20975 -0.00527 -0.00187 35.23127 -3.09829 -70.76330 5.25033 14.81286 -11.47852 49.36076 58.58917 -28.12519 -3.82598 0.07960 -0.00066 5.38732 39.55015 -5.62305 
32.46847 97.82370 -4.36757 12.77700 33.28320 -162.23846 15.39380 19.05086 -14.76779 0.00909 0.01791 -0.01675 14.96781 14.29084 -29.66070 2.59501 14.46603 2.35163 -82.80270 -12.81254 -76.70204 -38.55291 36.22150 -81.94160 24.35231 -0.34678 -15.01853 26.61440 14.46492 -6.26213 78.80394 -31.66183 75.01504 7.59091 24.97567 88.62636 16.51777 11.63069 5.90640 22.46516 15.82338 -32.24640 -17.23461 -5.09741 57.33793 -27.02159 -0.00944 -0.00163 31.73502 -3.63467 -70.54365 2.75595 8.32356 -16.04884 60.52511 65.98675 -36.27983 -3.82493 0.00964 -0.03348 7.03034 39.16735 -8.59047 
32.61122 98.20888 -4.59237 13.11455 36.21447 -160.58995 15.75935 20.10050 -15.00245 0.01277 0.02140 -0.01807 16.90475 16.05638 -31.90041 3.58175 15.49989 1.22116 -82.76021 -11.54073 -75.41267 -38.35780 36.21967 -82.64568 19.59962 6.97858 -14.00507 30.16967 14.60972 -8.83693 76.25732 -33.16361 72.52018 7.95890 24.97920 89.48141 16.63308 11.58182 6.25645 24.96505 17.74518 -34.96779 -17.44667 -5.03475 57.46198 -23.63737 -0.01289 -0.00153 28.10083 -4.29434 -70.51381 -1.19493 1.30401 -20.74014 77.24685 71.26662 -51.37772 -3.83360 0.01714 -0.02618 -0.53858 25.40772 -5.57646 
32.70915 98.35356 -4.70128 13.31035 39.06349 -159.17400 16.01424 21.00537 -14.84010 0.01584 0.02544 -0.01871 18.93014 17.95758 -34.28132 4.83800 16.78345 0.05036 -82.83113 -10.39767 -74.34747 -38.19659 36.09732 -83.31773 21.93661 3.06619 -14.66472 33.75339 14.82573 -11.47830 73.79859 -34.73445 70.22919 8.34726 25.05812 90.28622 16.70604 11.43005 6.51232 27.29964 19.46926 -37.46996 -17.73554 -4.90086 57.73276 -19.99507 -0.01733 -0.00139 24.39777 -5.04542 -70.66088 -6.71096 -5.98783 -25.76641 99.76669 73.78386 -73.34589 -4.12920 0.02626 -0.00869 -3.17988 17.10511 -3.81433 
32.78069 98.17661 -4.76675 13.33226 41.83808 -157.95250 16.74450 22.89553 -14.15247 0.03540 0.12459 0.01156 20.74644 18.58371 -36.72422 6.02681 16.87048 -1.45280 -82.92150 -9.38172 -73.37790 -38.03303 36.11620 -83.91015 18.78801 7.46458 -13.81028 36.82409 13.71362 -13.80700 71.51268 -36.21212 68.09074 8.74168 25.19564 91.05748 16.72492 11.44989 6.87092 29.40948 21.05044 -39.75109 -18.12979 -4.67052 58.14694 -16.15682 -0.02277 0.00072 20.68929 -5.91109 -70.93537 -14.02402 -13.11407 -31.29968 117.94756 73.38727 -93.00473 -13.55533 -0.18851 0.55344 2.94771 11.91712 -0.48985 
32.84438 97.67455 -4.91100 13.11782 44.52331 -156.84991 17.24151 24.44328 -13.28433 0.01315 0.02526 -0.02425 22.62495 19.75715 -39.17418 7.11410 17.33752 -2.94577 -82.92157 -8.70923 -72.38755 -37.94416 36.14482 -84.42050 20.19401 5.21608 -14.67336 39.42606 12.91299 -16.08589 69.51300 -37.57777 66.00641 9.12201 25.32443 91.73288 16.63172 11.75604 7.34920 31.25970 22.54494 -41.81207 -18.65467 -4.26681 58.67176 -12.25630 -0.02833 0.00613 16.99013 -6.96665 -71.28324 -23.25164 -19.57584 -37.36493 126.42301 72.08463 -103.22890 -12.66286 -0.01024 -0.08119 -0.79470 8.54957 5.20334 
32.89476 96.94897 -5.21529 12.60650 47.09552 -155.76953 17.38469 25.66792 -12.32502 0.01171 0.02057 -0.02659 24.52568 21.14511 -41.55717 7.96838 17.76768 -4.43715 -82.83337 -8.32688 -71.35380 -37.91096 36.27050 -84.81619 18.24572 7.73469 -14.51710 41.35494 12.10801 -18.16282 67.83882 -38.75892 64.05455 9.48534 25.38091 92.27359 16.46935 12.21751 7.91167 32.85913 24.00615 -43.66846 -19.33216 -3.63911 59.26205 -8.41327 -0.03281 0.01440 13.28149 -8.27962 -71.67373 -34.13041 -24.91801 -43.70174 127.72999 70.94363 -106.03030 -18.23030 -0.21988 0.56553 2.29144 6.90820 9.60637 
32.91337 96.14906 -5.70698 11.77445 49.53792 -154.62808 17.10856 26.58124 -11.34662 0.00938 0.02156 -0.02692 26.48632 22.80760 -43.83078 8.64666 18.23926 -5.83066 -82.72796 -8.20122 -70.35172 -37.97042 36.38503 -85.11739 18.95253 6.34431 -15.41320 42.72048 11.45880 -20.03777 66.47518 -39.75286 62.38475 9.83429 25.33625 92.67599 16.26817 12.64015 8.42008 34.25804 25.46964 -45.34694 -20.17068 -2.77449 59.87849 -4.69613 -0.03536 0.02401 9.52696 -9.88127 -72.10063 -45.95756 -28.88959 -49.64045 123.02527 69.65120 -101.70248 -19.38737 -0.06441 0.18723 1.25938 5.85332 13.15279 
32.92922 95.47594 -6.50426 10.63731 51.85486 -153.35530 16.36659 27.16658 -10.40861 0.00590 0.02098 -0.02690 28.52313 24.71951 -45.97308 9.02078 18.58815 -7.05079 -82.51855 -8.24397 -69.28656 -38.07768 36.50919 -85.33410 17.82637 7.87089 -15.74266 43.45935 10.90202 -21.59044 65.36232 -40.56468 60.90652 10.18374 25.16648 92.98611 15.96480 13.14641 9.10245 35.60073 26.97304 -46.91671 -21.15934 -1.68456 60.46443 -1.16805 -0.03541 0.03340 5.68055 -11.77323 -72.56222 -57.84721 -31.71867 -54.47338 113.98704 67.42941 -92.44309 -20.86601 -0.05150 0.22500 2.83207 6.22831 11.45849 
32.99199 95.12996 -7.71645 9.25153 54.07643 -151.91814 15.16816 27.39598 -9.56051 0.00250 0.01475 -0.03019 30.63878 26.86719 -47.97783 0.70868 10.58666 -7.49504 -77.32533 -8.46579 -61.78239 -37.14779 36.38550 -86.73034 16.16526 6.43429 -11.40760 37.47956 3.15708 -15.79780 59.04626 -42.95678 48.68135 8.77902 24.86120 95.39760 16.67162 9.49086 6.10440 37.12410 28.56112 -48.50309 -22.24381 -0.40565 60.95700 2.09732 -0.03264 0.04032 1.69318 -13.90358 -73.05733 -69.28103 -34.07295 -57.95836 103.63879 63.86329 -82.09947 -18.84526 0.05940 -0.20279 3.15502 7.43597 10.82304 
33.09251 95.00245 -9.10134 7.68849 56.23258 -150.33284 13.59305 27.31829 -8.79875 0.00602 0.01670 -0.02685 31.33424 28.55882 -49.21257 1.12097 12.19575 -7.80439 -82.62592 -8.48552 -66.98128 -38.21258 37.15432 -82.18018 19.35703 10.05919 -27.13366 39.06059 3.83292 -17.89317 60.26467 -43.66279 55.76688 9.27540 25.29907 92.85789 10.47266 21.04631 19.28048 38.92313 30.17538 -50.16269 -23.35522 1.03008 61.35737 5.14017 -0.02851 0.04329 -2.42285 -16.13753 -73.58916 -79.81914 -36.37742 -59.97556 93.34977 59.26948 -72.86996 -15.00216 0.05672 -0.47046 5.77663 9.41017 9.15575 
